<?xml version="1.0" encoding="UTF-8"?><svg id="Layer_2" xmlns="http://www.w3.org/2000/svg" viewBox="0 0 392.059 287.965"><defs><style>.cls-1{fill:#0e0d0d;}.cls-1,.cls-2,.cls-3{stroke-width:0px;}.cls-2{fill:#3242c0;}.cls-3{fill:#ffb600;}</style></defs><g id="Layer_1-2"><path class="cls-2" d="m149.038,56.734c0-17.216,9.312-32.291,23.158-40.475l4.706-12.944c-21.92,7.85-37.607,28.8-37.607,53.42,0,22.34,12.917,41.655,31.684,50.907l3.427-9.207c-15.057-7.839-25.37-23.583-25.37-41.701Z"/><path class="cls-3" d="m196.03,0c-1.977,0-3.929.102-5.853.3l-.6,1.65h0l-13.867,38.143h0l-10.142,27.897c-.891,2.459,1.239,4.951,3.807,4.455l28.972-5.6-12.878,34.595-4.078,10.954-2.882,7.74c-.865,2.323,2.321,3.948,3.694,1.883l4.948-7.444,1.096-1.65c2.546.351,5.141.545,7.783.545,31.333,0,56.734-25.401,56.734-56.734S227.363,0,196.03,0Zm0,103.725c-.549,0-1.092-.03-1.637-.049l.287-.432,34.043-51.213c1.29-1.94-.362-4.482-2.659-4.092l-28.689,4.879,15.342-27.686,5.45-9.835c14.778,7.928,24.853,23.525,24.853,41.436,0,25.911-21.08,46.992-46.992,46.992Z"/><path class="cls-1" d="m22.877,143.31c2.881-1.48,6.062-2.222,9.545-2.222,5.24,0,9.4,1.433,12.477,4.297,3.076,2.865,5.264,6.592,6.566,11.182.064.488.252.847.562,1.074.309.229.691.342,1.146.342.131,0,.229-.016.293-.049h.244c.455,0,.961-.195,1.514-.586s.797-.846.732-1.367l-1.074-15.283c-.033-.032-.072-.057-.121-.073-.049-.016-.107-.04-.172-.073-1.791-.781-3.531-1.448-5.225-2.002-1.693-.553-3.963-1.05-6.811-1.489-2.85-.439-6.193-.659-10.035-.659-5.078,0-10.115,1.294-15.111,3.882-4.998,2.588-9.148,6.616-12.451,12.085-3.305,5.469-4.957,12.24-4.957,20.312,0,8.594,1.627,15.576,4.883,20.947s7.406,9.213,12.451,11.523,10.449,3.467,16.211,3.467c3.678,0,7.088-.432,10.23-1.294,3.141-.862,5.672-1.847,7.592-2.954,1.92-1.106,2.914-1.937,2.979-2.49l1.562-13.379c0-.488-.357-.887-1.074-1.196-.717-.309-1.352-.464-1.904-.464s-.961.114-1.221.342c-.26.229-.455.651-.586,1.27-.586,2.995-1.57,5.648-2.953,7.959-1.385,2.312-3.289,4.15-5.713,5.518-2.426,1.367-5.412,2.051-8.961,2.051-3.256,0-6.438-.821-9.545-2.466-3.109-1.644-5.787-4.785-8.033-9.424s-3.369-11.108-3.369-19.409c0-8.789,1.002-15.511,3.004-20.166,2.002-4.654,4.443-7.723,7.324-9.204Z"/><path class="cls-1" d="m105.277,202.685c-.391-.504-.846-.675-1.367-.513-.424.131-.797.229-1.123.293-.326.065-.814.098-1.465.098-.521,0-.961-.537-1.318-1.611s-.537-2.278-.537-3.613v-23.828c0-2.994-.447-5.647-1.342-7.959-.896-2.311-2.605-4.207-5.127-5.688-2.523-1.48-6.08-2.222-10.67-2.222-3.613,0-6.869.537-9.766,1.611s-5.16,2.482-6.787,4.224c-1.627,1.742-2.441,3.589-2.441,5.542,0,2.019.545,3.467,1.637,4.346,1.09.879,2.611,1.318,4.564,1.318l5.859-11.816c.553-.26,1.18-.464,1.881-.61.699-.146,1.668-.22,2.904-.22,2.408,0,4.371.424,5.885,1.27,1.514.847,2.588,1.896,3.223,3.149.635,1.254.951,2.563.951,3.931v7.52c-5.338.554-10.051,1.384-14.135,2.49-4.086,1.107-7.496,2.856-10.23,5.249s-4.102,5.607-4.102,9.644c0,2.93.691,5.363,2.076,7.3,1.383,1.938,3.125,3.354,5.225,4.248s4.223,1.343,6.371,1.343c3.418,0,6.348-.497,8.789-1.489s4.736-2.612,6.885-4.858v.488c0,1.791.27,3.109.807,3.955.537.847,1.18,1.367,1.928,1.562s1.693.276,2.832.244h.488c.977,0,1.994-.155,3.053-.464,1.057-.31,2.059-.699,3.002-1.172.943-.472,1.725-.936,2.344-1.392.195-.162.293-.423.293-.781,0-.553-.195-1.082-.586-1.587Zm-15.088-4.126c-1.139,1.14-2.686,2.124-4.639,2.954s-4.15,1.245-6.592,1.245c-1.4,0-2.629-.35-3.686-1.05-1.059-.699-1.873-1.644-2.441-2.832-.57-1.188-.855-2.466-.855-3.833,0-3.223.725-5.737,2.174-7.544,1.447-1.807,3.418-3.125,5.908-3.955s5.867-1.554,10.131-2.173v17.188Z"/><path class="cls-1" d="m183.214,161.132c-3.143-2.327-7.154-3.491-12.037-3.491-2.311,0-4.711.537-7.201,1.611s-4.6,2.49-6.324,4.248v-3.076c-.064-.716-.244-1.221-.537-1.514s-.602-.439-.928-.439c-4.123,0-8.473.134-13.024.385l.003-.007-3.716.213c-1.099-.946-2.867-1.422-5.312-1.422-1.822,0-3.482.439-4.98,1.318s-2.816,1.994-3.955,3.345c-1.139,1.352-2.328,2.987-3.564,4.907v-6.787c-.064-.716-.244-1.221-.537-1.514s-.602-.439-.928-.439c-5.924.098-10.727.261-14.404.488-.326.033-.602.285-.83.757-.229.473-.342.937-.342,1.392,0,.554.098.977.293,1.27s.488.521.879.684c.26.065.521.122.781.171s.521.09.781.122c1.205.195,2.182.424,2.93.684.748.261,1.4.798,1.953,1.611.553.814.83,1.986.83,3.516v31.055c0,.977-.545,1.701-1.635,2.173-1.092.473-2.434.79-4.029.952-.619.065-1.041.244-1.27.537s-.342.717-.342,1.27c0,.456.146.903.439,1.343s.699.659,1.221.659h23.193c.521,0,.928-.22,1.221-.659s.439-.887.439-1.343c0-.716-.113-1.18-.342-1.392-.229-.211-.699-.35-1.416-.415h-.146c-1.627-.13-2.994-.301-4.102-.513-1.107-.211-2.074-.65-2.904-1.318-.83-.667-1.246-1.636-1.246-2.905v-26.416c.553-1.432,1.311-2.767,2.271-4.004.959-1.236,1.992-2.229,3.1-2.979,1.107-.748,2.133-1.123,3.076-1.123l4.639,5.859c.748,0,1.619-.211,2.613-.635.992-.423,1.846-1.041,2.562-1.855.717-.813,1.074-1.79,1.074-2.93,0-.507-.032-.99-.095-1.449.191.042.675.132,1.489.277,1.172.195,2.141.432,2.906.708.764.277,1.424.814,1.977,1.611.553.798.83,1.962.83,3.491v50.244c0,1.27-.293,2.237-.879,2.905-.586.667-1.277,1.106-2.074,1.318-.799.211-1.768.382-2.906.513h-.098c-.717.064-1.188.203-1.416.415-.229.211-.342.675-.342,1.392,0,.423.154.862.465,1.318.309.455.707.684,1.195.684h23.682c.521,0,.928-.22,1.221-.659s.439-.888.439-1.343c0-.554-.113-.977-.342-1.27s-.65-.473-1.27-.537c-2.408-.163-4.443-.48-6.104-.952-1.66-.473-2.49-1.196-2.49-2.173v-12.451l-.488-3.516c2.67,2.376,6.982,3.564,12.939,3.564,4.916,0,9.033-1.172,12.354-3.516s5.777-5.444,7.373-9.302,2.393-8.081,2.393-12.671c0-4.654-.717-8.902-2.148-12.744-1.432-3.841-3.719-6.925-6.859-9.253Zm-4.395,37.354c-1.971,3.662-5.479,5.493-10.523,5.493-1.693,0-3.223-.162-4.59-.488-1.367-.325-2.555-.83-3.564-1.514s-1.84-1.529-2.49-2.539v-32.178c1.172-1.367,2.768-2.53,4.785-3.491,2.018-.96,3.906-1.44,5.664-1.44,5.078,0,8.627,1.831,10.645,5.493s3.027,8.765,3.027,15.308c0,6.576-.984,11.694-2.953,15.356Z"/><path class="cls-1" d="m237.148,174.487c-.943-5.403-2.896-9.562-5.859-12.476-2.963-2.913-7.357-4.37-13.184-4.37-3.971,0-7.633.977-10.986,2.93s-6.029,4.826-8.031,8.618c-2.002,3.793-3.004,8.31-3.004,13.55,0,8.236,1.92,14.6,5.762,19.092s9.457,6.738,16.846,6.738c3.971,0,7.301-.879,9.986-2.637s4.793-4.166,6.322-7.227c.195-.391.293-.65.293-.781,0-.26-.18-.455-.537-.586l-2.441-1.123c-.229-.064-.398-.04-.512.073-.115.114-.221.285-.318.513l-.098.195c-1.041,2.051-2.58,3.646-4.613,4.785-2.035,1.14-4.307,1.709-6.812,1.709-2.311,0-4.477-.699-6.494-2.1-2.018-1.399-3.662-3.662-4.932-6.787s-1.92-7.129-1.953-12.012h31.152c0-3.189-.195-5.892-.586-8.105Zm-30.469,3.906c.162-4.492.691-7.894,1.588-10.205.895-2.311,2.107-3.865,3.637-4.663,1.529-.797,3.58-1.196,6.152-1.196,2.67,0,4.811,1.286,6.422,3.857,1.611,2.572,2.416,6.543,2.416,11.914l-20.215.293Z"/><path class="cls-1" d="m305.609,154.614c-2.361-4.98-6.201-9.009-11.523-12.085s-12.184-4.63-20.582-4.663h-29.102c-.488,0-.887.293-1.195.879-.311.586-.465,1.123-.465,1.611,0,.717.113,1.181.342,1.392.229.212.699.351,1.416.415l.586.049c1.4.163,2.547.358,3.443.586.895.229,1.684.668,2.367,1.318.684.651,1.025,1.579,1.025,2.783v52.832c0,.977-.691,1.701-2.074,2.173-1.385.473-3.053.79-5.006.952-.619.065-1.041.244-1.27.537s-.342.717-.342,1.27c0,.488.154,1.025.465,1.611.309.586.707.879,1.195.879h31.152c5.273,0,10.449-1.302,15.527-3.906,5.078-2.604,9.277-6.616,12.598-12.036s4.98-12.117,4.98-20.093c0-6.021-1.18-11.523-3.539-16.504Zm-11.939,36.572c-2.311,4.525-5.225,7.495-8.74,8.911s-7.682,2.124-12.5,2.124c-3.809,0-6.453-.325-7.934-.977-1.482-.65-2.223-1.416-2.223-2.295l.049-56.348h9.619c4.428,0,8.504.781,12.232,2.344,3.727,1.562,6.818,4.468,9.277,8.716,2.457,4.248,3.686,10.132,3.686,17.651,0,8.725-1.156,15.349-3.467,19.873Z"/><path class="cls-1" d="m391.717,203.271c-.229-.211-.699-.35-1.416-.415l-.635-.049c-1.4-.162-2.562-.357-3.49-.586-.928-.228-1.734-.667-2.418-1.318-.684-.65-1.025-1.578-1.025-2.783l.049-52.832c0-.977.691-1.7,2.076-2.173,1.383-.472,3.051-.789,5.004-.952.619-.064,1.041-.244,1.27-.537s.342-.716.342-1.27c0-.488-.154-1.025-.463-1.611-.311-.586-.709-.879-1.197-.879h-21.68c-.229,1.042-.553,2.238-.977,3.589-.424,1.352-.928,2.873-1.514,4.565-.033.033-.049.082-.049.146,0,.065-.016.114-.049.146l-14.404,42.969h-.586l-17.432-51.416h-24.268c-.488.033-.887.334-1.195.903-.311.57-.465,1.099-.465,1.587,0,.717.113,1.181.342,1.392.229.212.699.351,1.416.415h.146c1.693.131,3.125.302,4.297.513,1.172.212,2.197.651,3.076,1.318.879.668,1.318,1.636,1.318,2.905v51.27c0,1.27-.414,2.23-1.244,2.881-.83.651-1.816,1.091-2.955,1.318-1.139.229-2.588.391-4.346.488-.619.065-1.041.244-1.27.537s-.342.717-.342,1.27c0,.488.154,1.025.465,1.611.309.586.707.879,1.195.879h22.705c.488,0,.887-.293,1.197-.879.309-.586.463-1.123.463-1.611,0-.716-.113-1.18-.342-1.392-.229-.211-.699-.35-1.416-.415h-.244c-1.725-.13-3.207-.301-4.443-.513-1.236-.211-2.328-.65-3.271-1.318-.943-.667-1.416-1.636-1.416-2.905v-53.516h1.807l23.242,62.549h2.49l20.947-62.549h1.807l-.049,55.127c0,.944-.74,1.66-2.221,2.148-1.482.488-3.232.814-5.25.977-.619.065-1.041.244-1.27.537s-.342.717-.342,1.27c0,.488.154,1.025.465,1.611.309.586.707.879,1.195.879h25.049c.488,0,.887-.293,1.197-.879.309-.586.463-1.123.463-1.611,0-.716-.113-1.18-.342-1.392Z"/><path class="cls-2" d="m35.08,277.682c-.923-.278-1.626-.535-2.109-.77s-.784-.381-.901-.439c-.205-.103-.446-.227-.725-.373-.176-.103-.349-.19-.517-.264-.169-.073-.318-.11-.45-.11-.234,0-.477.14-.726.417-.498.602-1.025.901-1.582.901-.308,0-.553-.099-.736-.297-.183-.197-.267-.45-.252-.758.029-.439.044-1.047.044-1.823,0-1.23-.096-2.783-.286-4.658-.103-1.025-.153-1.736-.153-2.132,0-.425.109-.743.329-.956.22-.212.491-.318.813-.318.293,0,.549.081.769.242s.366.388.439.681c.176.659.37,1.293.582,1.9.213.608.554,1.389,1.022,2.341.527,1.04,1.208,1.926,2.043,2.658s1.739,1.282,2.714,1.648c.974.366,1.938.549,2.89.549,1.509,0,2.769-.377,3.779-1.132,1.011-.754,1.509-1.995,1.494-3.724-.015-1.1-.366-2.092-1.055-2.978-.688-.887-1.535-1.655-2.538-2.308-1.004-.651-2.281-1.38-3.834-2.186-1.758-.908-3.208-1.755-4.351-2.538-1.143-.784-2.117-1.772-2.923-2.967-.806-1.193-1.223-2.604-1.252-4.229-.029-1.831.417-3.384,1.34-4.658s2.135-2.227,3.637-2.856c1.501-.63,3.109-.944,4.823-.944,1.084,0,1.995.076,2.735.23.739.153,1.498.362,2.274.626.498.19.856.286,1.076.286s.392-.029.517-.088c.124-.059.253-.15.385-.275.132-.124.241-.209.329-.252.161-.103.359-.154.594-.154.322,0,.622.084.9.253.278.168.418.362.418.582.015,1.025.132,2.476.352,4.351.146,1.318.22,2.131.22,2.439,0,.439-.117.758-.352.955-.234.198-.527.297-.879.297-.234,0-.447-.048-.638-.143-.19-.096-.314-.216-.373-.363-.205-1.143-.601-2.244-1.187-3.307-.586-1.062-1.389-1.934-2.406-2.614-1.019-.682-2.223-1.022-3.614-1.022-1.597,0-2.875.382-3.835,1.143-.959.763-1.438,1.985-1.438,3.67,0,.952.337,1.842,1.011,2.67.674.827,1.497,1.563,2.472,2.208.974.645,2.237,1.392,3.79,2.241,1.948,1.084,3.501,2.018,4.658,2.802,1.157.783,2.172,1.772,3.043,2.966.872,1.194,1.308,2.561,1.308,4.098,0,1.846-.458,3.439-1.373,4.779-.916,1.341-2.153,2.362-3.714,3.065-1.56.703-3.292,1.055-5.196,1.055-1.348,0-2.482-.14-3.405-.417Z"/><path class="cls-2" d="m54.965,275.056c-1.846-2.015-2.769-4.89-2.769-8.624,0-2.358.483-4.388,1.45-6.087s2.264-2.988,3.89-3.867,3.405-1.318,5.339-1.318c2.827,0,4.955.648,6.384,1.944,1.428,1.297,2.347,3.161,2.757,5.592.161.895.242,2.109.242,3.648h-14.414c0,2.168.304,3.94.912,5.316.607,1.378,1.384,2.373,2.329,2.988.944.615,1.951.924,3.021.924,1.201,0,2.26-.228,3.176-.682.915-.454,1.644-1.128,2.186-2.021.015-.029.044-.084.088-.165.044-.08.1-.135.165-.165.066-.028.143-.036.23-.021l1.055.506c.146.059.22.146.22.264,0,.088-.044.205-.132.352-.718,1.377-1.735,2.461-3.054,3.252s-2.938,1.186-4.856,1.186c-3.633,0-6.372-1.007-8.218-3.021Zm10.624-16.15c-.652-1.149-1.563-1.725-2.735-1.725-1.011,0-1.86.201-2.549.604-.688.402-1.238,1.131-1.648,2.186s-.666,2.535-.769,4.439l8.679-.088c0-2.461-.326-4.267-.978-5.417Z"/><path class="cls-2" d="m75.51,277.143c-.132-.197-.198-.398-.198-.604,0-.249.052-.439.154-.572.103-.131.293-.212.571-.241,1.685-.176,2.526-.622,2.526-1.341l.022-14.04c0-.688-.121-1.212-.362-1.571-.242-.358-.535-.601-.879-.725-.345-.125-.78-.224-1.308-.297-.425-.073-.667-.117-.726-.132-.176-.073-.308-.176-.396-.308s-.132-.322-.132-.571c0-.205.048-.414.144-.626.095-.213.223-.326.384-.341,2.725-.161,5.273-.241,7.646-.241.161,0,.308.065.439.197s.205.359.22.682v17.248c0,.557.136.981.407,1.274.271.293.585.483.944.571.358.088.802.161,1.329.22.322.029.535.092.638.187.103.096.153.305.153.627,0,.19-.069.388-.208.593-.14.205-.319.308-.539.308h-10.283c-.234,0-.417-.099-.549-.297Zm3.229-26.422c-.586-.645-.879-1.45-.879-2.417s.293-1.772.879-2.417,1.341-.967,2.264-.967c.908,0,1.659.322,2.252.967.594.645.89,1.45.89,2.417s-.296,1.772-.89,2.417c-.593.645-1.344.967-2.252.967-.923,0-1.678-.322-2.264-.967Z"/><path class="cls-2" d="m107.469,269.441c.153.132.224.315.209.549l-.439,6.549c-.015.264-.129.476-.341.637-.213.161-.443.249-.692.264h-16.699c-.234,0-.443-.099-.626-.297-.184-.197-.274-.442-.274-.736,0-.264.076-.534.23-.812.153-.278.421-.695.802-1.252l10.613-15.074,1.494-1.823h-6.79c-.645,0-1.237.352-1.779,1.055s-.981,1.502-1.318,2.396-.535,1.574-.594,2.043c-.029.264-.153.45-.373.561-.22.109-.469.164-.747.164-.19,0-.355-.065-.495-.197-.139-.132-.201-.314-.187-.549l.439-6.395c.015-.249.132-.461.352-.637s.447-.271.682-.286h15.886c.249,0,.458.096.626.286.169.19.253.41.253.658,0,.47-.241,1.033-.725,1.692l-10.503,14.985-1.934,2.395,7.427-.065c.63,0,1.23-.362,1.802-1.088.571-.725,1.043-1.541,1.417-2.45.373-.907.59-1.589.648-2.043.029-.264.139-.45.329-.561.19-.109.454-.164.791-.164.19,0,.362.065.517.197Z"/><path class="cls-2" d="m113.324,275.056c-1.846-2.015-2.769-4.89-2.769-8.624,0-2.358.483-4.388,1.45-6.087s2.264-2.988,3.89-3.867,3.405-1.318,5.339-1.318c2.827,0,4.955.648,6.384,1.944,1.428,1.297,2.347,3.161,2.757,5.592.161.895.242,2.109.242,3.648h-14.414c0,2.168.304,3.94.912,5.316.607,1.378,1.384,2.373,2.329,2.988.944.615,1.951.924,3.021.924,1.201,0,2.26-.228,3.176-.682.915-.454,1.644-1.128,2.186-2.021.015-.029.044-.084.088-.165.044-.08.1-.135.165-.165.066-.028.143-.036.23-.021l1.055.506c.146.059.22.146.22.264,0,.088-.044.205-.132.352-.718,1.377-1.735,2.461-3.054,3.252s-2.938,1.186-4.856,1.186c-3.633,0-6.372-1.007-8.218-3.021Zm10.624-16.15c-.652-1.149-1.563-1.725-2.735-1.725-1.011,0-1.86.201-2.549.604-.688.402-1.238,1.131-1.648,2.186s-.666,2.535-.769,4.439l8.679-.088c0-2.461-.326-4.267-.978-5.417Z"/><path class="cls-2" d="m148.459,276.803c-1.011-.864-1.517-2.285-1.517-4.264v-14.875h-2.482c-.161-.015-.29-.106-.385-.274-.096-.169-.143-.348-.143-.538,0-.278.055-.502.164-.671.11-.168.253-.267.429-.296l1.055-.286c1.025-.132,1.883-.674,2.571-1.626s1.252-2.417,1.691-4.395c.044-.22.157-.377.341-.473.183-.095.465-.143.846-.143s.641.044.78.132c.139.088.209.241.209.462v6.042h5.933c.161.015.289.096.384.241.096.147.144.315.144.506,0,.352-.066.659-.198.923s-.278.396-.439.396h-5.822v13.162c0,1.729.205,2.918.615,3.57.41.651.974.978,1.691.978.747,0,1.414-.092,2-.274.586-.184,1.23-.443,1.934-.78.176.103.348.304.516.604.169.3.246.553.231.758-.293.322-.795.674-1.506,1.055-.71.381-1.476.703-2.296.967s-1.56.396-2.219.396c-2.007,0-3.516-.433-4.526-1.296Z"/><path class="cls-2" d="m160.565,277.143c-.132-.197-.197-.398-.197-.604,0-.249.051-.439.153-.572.103-.131.293-.212.571-.241.703-.073,1.304-.212,1.802-.417s.747-.513.747-.924v-26.301c0-.688-.12-1.212-.362-1.571-.241-.358-.535-.597-.879-.714-.345-.117-.78-.212-1.308-.285-.425-.073-.666-.117-.725-.133-.176-.072-.308-.176-.396-.307-.088-.133-.132-.322-.132-.572,0-.204.047-.413.143-.626.095-.212.224-.325.385-.341,2.666-.176,5.207-.264,7.624-.264.146,0,.286.066.418.198s.212.359.241.681v9.844l-.176,4.879c.381-.396.992-.883,1.835-1.462.842-.578,1.831-1.099,2.967-1.56,1.135-.462,2.273-.692,3.416-.692,1.89,0,3.392.403,4.505,1.208,1.113.807,1.67,2.293,1.67,4.461v12.832c0,.542.124.956.373,1.241.249.286.542.473.879.561s.762.161,1.274.22c.117,0,.278.015.483.044.264.029.451.099.561.209.11.109.165.312.165.604,0,.205-.066.406-.198.604-.132.198-.314.297-.549.297h-10.262c-.234,0-.417-.099-.549-.297-.132-.197-.198-.398-.198-.604,0-.249.048-.443.144-.583.095-.139.274-.216.538-.23.542-.044,1.065-.187,1.571-.429.505-.241.758-.545.758-.912v-13.864c0-1.626-.916-2.438-2.747-2.438-1.201,0-2.405.289-3.614.867-1.208.579-2.157,1.205-2.846,1.879v12.832c0,.557.125.981.374,1.274s.538.483.868.571c.329.088.75.161,1.263.22.322.029.535.092.638.187.103.096.153.305.153.627,0,.19-.069.388-.208.593-.14.205-.319.308-.539.308h-10.085c-.234,0-.418-.099-.55-.297Z"/><path class="cls-2" d="m191.437,275.056c-1.846-2.015-2.769-4.89-2.769-8.624,0-2.358.483-4.388,1.45-6.087s2.263-2.988,3.889-3.867,3.406-1.318,5.34-1.318c2.827,0,4.954.648,6.383,1.944,1.428,1.297,2.348,3.161,2.758,5.592.161.895.241,2.109.241,3.648h-14.414c0,2.168.304,3.94.912,5.316.607,1.378,1.384,2.373,2.329,2.988.944.615,1.952.924,3.021.924,1.201,0,2.259-.228,3.175-.682.915-.454,1.645-1.128,2.187-2.021.015-.029.044-.084.088-.165.044-.08.099-.135.164-.165.066-.028.144-.036.231-.021l1.055.506c.146.059.22.146.22.264,0,.088-.044.205-.132.352-.718,1.377-1.736,2.461-3.055,3.252s-2.937,1.186-4.855,1.186c-3.633,0-6.372-1.007-8.218-3.021Zm10.623-16.15c-.651-1.149-1.563-1.725-2.735-1.725-1.011,0-1.86.201-2.549.604-.688.402-1.237,1.131-1.647,2.186s-.667,2.535-.77,4.439l8.68-.088c0-2.461-.326-4.267-.979-5.417Z"/><path class="cls-2" d="m227.45,276.506c-1.436-1.048-2.482-2.432-3.142-4.153-.659-1.721-.989-3.629-.989-5.724,0-2.051.381-3.947,1.143-5.691.762-1.742,1.927-3.142,3.494-4.196s3.493-1.582,5.778-1.582c1.274,0,2.398.125,3.373.374.974.249,1.827.674,2.56,1.273l-.22-3.625v-5.098c0-.674-.176-1.193-.527-1.561-.352-.365-.762-.615-1.23-.746-.469-.133-1.076-.249-1.823-.352-.293-.029-.513-.059-.659-.088-.176-.073-.308-.176-.396-.309-.088-.131-.132-.321-.132-.57,0-.205.051-.414.153-.627.103-.212.228-.325.374-.34,2.461-.146,5.332-.221,8.613-.221.161,0,.308.07.439.209.132.14.205.363.22.67v29.443c0,.587.121,1.029.362,1.33.242.3.527.494.857.582.329.088.743.161,1.241.22.322.029.534.092.637.187.103.096.154.305.154.627,0,.19-.07.388-.209.593-.14.205-.318.308-.538.308h-5.801c-.542,0-.934-.08-1.176-.242-.241-.16-.389-.384-.439-.67-.052-.285-.069-.721-.055-1.307-.732.864-1.718,1.556-2.955,2.076-1.238.52-2.443.779-3.615.779-2.227,0-4.058-.523-5.493-1.57Zm10.009-1.549c.886-.439,1.549-.981,1.988-1.627v-13.688c-.352-.703-.927-1.267-1.725-1.692-.799-.424-1.71-.637-2.735-.637-2.241,0-3.812.812-4.713,2.439-.901,1.625-1.352,3.918-1.352,6.877,0,2.798.454,4.995,1.362,6.592s2.453,2.395,4.636,2.395c.806,0,1.651-.219,2.538-.658Z"/><path class="cls-2" d="m252.521,267.771c1.289-1.084,2.874-1.875,4.757-2.373,1.882-.498,4.039-.871,6.471-1.121v-3.449c0-1.099-.333-1.981-1-2.647-.666-.667-1.702-1-3.108-1-1.04,0-1.795.125-2.264.374l-2.922,5.492c-.938,0-1.682-.227-2.23-.681-.55-.454-.824-1.135-.824-2.044,0-.967.433-1.846,1.297-2.637s2.003-1.409,3.416-1.856c1.414-.446,2.912-.67,4.494-.67,3.047,0,5.192.626,6.438,1.879,1.245,1.252,1.868,2.89,1.868,4.911v11.096c0,.586.08,1.106.241,1.561s.359.681.594.681c.366,0,.827-.073,1.384-.22.234-.044.425.055.571.297.146.241.22.494.22.758,0,.176-.044.301-.132.373-.439.323-1.099.638-1.978.945s-1.787.461-2.725.461c-1.025,0-1.772-.205-2.241-.615-.469-.409-.703-1.105-.703-2.087v-.176c-.952.996-2.018,1.729-3.197,2.197-1.179.469-2.537.703-4.075.703-.981,0-1.952-.201-2.912-.604-.959-.402-1.761-1.043-2.405-1.922s-.967-1.979-.967-3.297c0-1.801.645-3.244,1.934-4.328Zm3.966,5.822c.241.499.597.897,1.065,1.198.469.3,1.011.45,1.626.45,1.025,0,1.927-.18,2.703-.538.776-.359,1.392-.787,1.846-1.286v-7.514c-1.699.249-3.073.557-4.12.922-1.048.367-1.89.956-2.527,1.77-.637.812-.955,1.938-.955,3.373,0,.586.12,1.128.362,1.625Z"/><path class="cls-2" d="m277.812,276.803c-1.011-.864-1.516-2.285-1.516-4.264v-14.875h-2.483c-.161-.015-.289-.106-.384-.274-.096-.169-.144-.348-.144-.538,0-.278.056-.502.165-.671.11-.168.253-.267.429-.296l1.055-.286c1.025-.132,1.882-.674,2.57-1.626s1.253-2.417,1.692-4.395c.044-.22.157-.377.341-.473.183-.095.465-.143.846-.143s.641.044.78.132c.139.088.208.241.208.462v6.042h5.933c.161.015.289.096.385.241.095.147.143.315.143.506,0,.352-.065.659-.197.923s-.278.396-.439.396h-5.823v13.162c0,1.729.205,2.918.615,3.57.41.651.975.978,1.692.978.747,0,1.413-.092,1.999-.274.586-.184,1.23-.443,1.934-.78.176.103.348.304.517.604.168.3.245.553.23.758-.293.322-.795.674-1.505,1.055-.711.381-1.476.703-2.296.967s-1.561.396-2.22.396c-2.007,0-3.516-.433-4.526-1.296Z"/><path class="cls-2" d="m290.6,277.143c-.132-.197-.197-.398-.197-.604,0-.249.051-.439.153-.572.103-.131.293-.212.571-.241,1.685-.176,2.527-.622,2.527-1.341l.021-14.04c0-.688-.121-1.212-.362-1.571-.242-.358-.535-.601-.879-.725-.345-.125-.78-.224-1.308-.297-.425-.073-.666-.117-.725-.132-.176-.073-.308-.176-.396-.308s-.132-.322-.132-.571c0-.205.047-.414.143-.626.095-.213.224-.326.385-.341,2.725-.161,5.273-.241,7.646-.241.161,0,.308.065.439.197s.205.359.22.682v17.248c0,.557.135.981.406,1.274.271.293.586.483.944.571.359.088.803.161,1.33.22.322.029.534.092.637.187.103.096.154.305.154.627,0,.19-.07.388-.209.593-.14.205-.318.308-.538.308h-10.283c-.234,0-.418-.099-.55-.297Zm3.23-26.422c-.586-.645-.879-1.45-.879-2.417s.293-1.772.879-2.417,1.34-.967,2.263-.967c.908,0,1.659.322,2.252.967.594.645.891,1.45.891,2.417s-.297,1.772-.891,2.417c-.593.645-1.344.967-2.252.967-.923,0-1.677-.322-2.263-.967Z"/><path class="cls-2" d="m304.662,277.143c-.132-.197-.197-.398-.197-.604,0-.249.051-.439.153-.572.103-.131.293-.212.571-.241,1.641-.205,2.461-.674,2.461-1.406v-13.975c0-.688-.124-1.212-.373-1.571-.249-.358-.542-.597-.879-.714s-.776-.22-1.318-.308c-.41-.073-.645-.117-.703-.132-.176-.073-.308-.176-.396-.308s-.132-.322-.132-.571c0-.205.047-.414.143-.626.095-.213.224-.326.385-.341,2.651-.161,5.127-.241,7.427-.241.146,0,.285.065.417.197s.213.359.242.682v2.461c.366-.381.974-.864,1.823-1.451.85-.585,1.842-1.109,2.978-1.57,1.135-.462,2.26-.692,3.373-.692,1.26,0,2.344.157,3.252.473.908.314,1.633.9,2.175,1.758.542.856.813,2.054.813,3.593v12.611c0,.572.121,1.004.362,1.297.242.293.527.483.857.571.329.088.75.161,1.264.22.131,0,.285.015.461.044.264.029.45.099.561.209.109.109.164.312.164.604,0,.205-.065.406-.197.604-.132.198-.315.297-.549.297h-10.196c-.234,0-.417-.099-.549-.297-.132-.197-.198-.398-.198-.604,0-.249.048-.443.144-.583.095-.139.274-.216.538-.23.542-.059,1.055-.212,1.538-.462.483-.248.725-.563.725-.944v-13.733c0-1.728-.923-2.592-2.769-2.592-1.187,0-2.369.289-3.548.867-1.18.579-2.113,1.205-2.802,1.879v12.854c0,.587.117,1.029.352,1.33.234.3.509.498.824.593.314.096.721.165,1.219.209.322.029.535.092.638.187.103.096.153.305.153.627,0,.19-.069.388-.208.593-.14.205-.319.308-.539.308h-9.909c-.234,0-.418-.099-.55-.297Z"/><path class="cls-2" d="m337.227,287.174c-1.568-.527-2.806-1.282-3.714-2.264s-1.362-2.124-1.362-3.428c0-1.201.352-2.172,1.055-2.911.703-.74,1.633-1.286,2.791-1.638-.938-.409-1.601-.934-1.989-1.57-.388-.638-.582-1.41-.582-2.318,0-.63.168-1.249.505-1.856.337-.608.78-1.136,1.33-1.582.549-.447,1.131-.766,1.746-.956-1.157-.63-2.018-1.505-2.581-2.626-.564-1.12-.847-2.317-.847-3.593,0-1.391.341-2.637,1.022-3.734.681-1.1,1.673-1.963,2.978-2.594,1.303-.629,2.863-.944,4.68-.944,1.318,0,2.465.169,3.438.505.975.338,1.827.828,2.56,1.473.439-.615.981-1.117,1.627-1.505.644-.389,1.325-.583,2.043-.583.967,0,1.747.309,2.34.924.594.615.891,1.449.891,2.504,0,.777-.169,1.385-.506,1.824s-.77.659-1.297.659l-2.438-3.714c-.337.06-.623.158-.856.297-.235.14-.506.37-.813.692.835,1.157,1.253,2.549,1.253,4.175,0,1.392-.323,2.647-.967,3.769-.646,1.12-1.608,2.007-2.89,2.658-1.282.652-2.831.978-4.647.978-1.567,0-2.762-.153-3.582-.461-.454.205-.798.498-1.032.879s-.352.791-.352,1.23c0,.688.293,1.205.879,1.549.586.345,1.377.517,2.373.517h5.339c2.446,0,4.307.513,5.582,1.538,1.273,1.025,1.911,2.717,1.911,5.076-.015,1.303-.425,2.556-1.23,3.757s-2.015,2.179-3.626,2.934c-1.611.754-3.552,1.132-5.822,1.132-1.904,0-3.641-.264-5.207-.791Zm8.679-1.813c.967-.314,1.769-.816,2.406-1.505.637-.688.956-1.561.956-2.615,0-1.04-.378-1.834-1.132-2.384-.755-.549-1.799-.823-3.132-.823h-4.68c-.425,0-.904-.041-1.439-.121-.534-.081-.955-.18-1.264-.297-.278.439-.498.894-.658,1.362-.162.469-.242,1.077-.242,1.823,0,1.143.3,2.092.9,2.846.601.755,1.377,1.308,2.33,1.659.951.352,1.947.527,2.988.527,1.01,0,1.999-.157,2.966-.473Zm-.264-22.972c0-1.611-.274-2.886-.824-3.824-.549-.937-1.483-1.406-2.802-1.406-1.304,0-2.212.47-2.725,1.406-.513.938-.769,2.228-.769,3.867s.264,2.941.791,3.9c.527.96,1.45,1.439,2.769,1.439,2.373,0,3.56-1.794,3.56-5.383Z"/><path class="cls-2" d="m358.43,272.693c.307-.513.725-.919,1.252-1.22.527-.3,1.113-.45,1.758-.45s1.234.15,1.769.45c.535.301.956.707,1.264,1.22s.462,1.069.462,1.67c0,.615-.158,1.194-.473,1.736-.315.542-.74.974-1.274,1.296-.535.322-1.117.483-1.747.483s-1.212-.161-1.747-.483c-.534-.322-.956-.754-1.263-1.296-.309-.542-.462-1.121-.462-1.736,0-.601.153-1.157.462-1.67Z"/><path class="cls-2" d="m364.938,250.64c0-.999.191-1.937.574-2.812s.901-1.642,1.557-2.297c.655-.654,1.421-1.174,2.297-1.557s1.813-.574,2.812-.574,1.937.191,2.812.574c.875.383,1.641.902,2.296,1.557.655.655,1.175,1.421,1.558,2.297.382.876.574,1.813.574,2.812s-.192,1.937-.574,2.812c-.383.876-.902,1.642-1.558,2.296-.655.656-1.421,1.175-2.296,1.558-.876.383-1.813.574-2.812.574s-1.937-.191-2.812-.574-1.642-.901-2.297-1.558c-.655-.654-1.174-1.42-1.557-2.296s-.574-1.813-.574-2.812Zm1.284,0c0,.817.156,1.59.468,2.316s.736,1.359,1.274,1.897,1.171.963,1.897,1.274,1.499.467,2.316.467,1.589-.155,2.315-.467,1.359-.736,1.898-1.274c.538-.538.963-1.171,1.274-1.897s.467-1.499.467-2.316-.155-1.589-.467-2.316c-.312-.727-.736-1.358-1.274-1.897-.539-.538-1.172-.963-1.898-1.274s-1.498-.468-2.315-.468-1.59.156-2.316.468-1.359.736-1.897,1.274c-.538.539-.963,1.171-1.274,1.897-.312.728-.468,1.499-.468,2.316Zm3.173-4.185h3.191c.999,0,1.735.214,2.209.643.474.428.711,1.044.711,1.849,0,.727-.187,1.271-.56,1.635-.372.363-.842.577-1.406.643l2.141,3.503h-1.596l-2.063-3.387h-1.109v3.387h-1.518v-8.271Zm1.518,3.601h1.109c.234,0,.468-.01.701-.029s.444-.068.633-.146c.188-.078.34-.195.457-.351.116-.155.175-.37.175-.643s-.059-.486-.175-.642c-.117-.156-.27-.272-.457-.351-.188-.078-.399-.123-.633-.137-.233-.013-.467-.02-.701-.02h-1.109v2.316Z"/></g></svg>